<svg width="408" height="310" viewBox="0 0 408 310" fill="none" xmlns="http://www.w3.org/2000/svg">
<g clip-path="url(#clip0_4_79)">
<path d="M247.398 93.4158C247.905 93.4391 248.408 93.3061 248.837 93.0348C249.267 92.7635 249.602 92.3671 249.798 91.8992C249.994 91.4314 250.041 90.9146 249.933 90.4191C249.825 89.9236 249.567 89.4732 249.194 89.1289C249.131 88.8811 249.087 88.703 249.024 88.4552C249.046 88.4012 249.069 88.3473 249.091 88.2934C251.373 82.8639 259.106 82.9013 261.368 88.339C263.376 93.1651 265.932 97.9996 266.562 103.102C266.839 105.358 266.722 107.645 266.216 109.86C270.932 99.5936 273.381 88.4351 273.397 77.1411C273.398 74.307 273.24 71.4751 272.924 68.6586C272.663 66.3496 272.301 64.0571 271.838 61.7811C269.31 49.4313 263.883 37.8561 256.003 28.006C252.188 25.9291 249.104 22.7352 247.164 18.8548C246.462 17.4599 245.965 15.9709 245.69 14.434C246.12 14.4903 247.312 7.95067 246.988 7.54943C247.588 6.64138 248.661 6.18999 249.316 5.3039C252.573 0.897067 257.06 1.66653 259.402 7.65507C264.407 10.1756 264.455 14.3557 261.384 18.3761C259.431 20.9338 259.163 24.3948 257.449 27.133C257.625 27.3583 257.808 27.5766 257.985 27.8019C261.208 31.9385 264.018 36.3806 266.373 41.0642C265.707 35.8696 266.69 29.6115 268.368 25.5774C270.277 20.981 273.855 17.1099 277.007 13.1364C280.792 8.36351 288.554 10.4465 289.22 16.4968C289.227 16.5554 289.233 16.614 289.239 16.6725C288.771 16.936 288.313 17.2158 287.865 17.5117C287.302 17.8872 286.865 18.4237 286.613 19.051C286.36 19.6782 286.304 20.3669 286.45 21.0269C286.597 21.6868 286.94 22.2872 287.434 22.7494C287.928 23.2115 288.551 23.5139 289.22 23.6169L289.289 23.6274C289.122 25.311 288.827 26.9795 288.407 28.6184C292.45 44.221 283.722 49.9037 271.26 50.159C270.985 50.2998 270.716 50.4406 270.441 50.5744C272.808 57.2668 274.292 64.2379 274.857 71.3124C275.177 75.4862 275.158 79.6789 274.8 83.8496L274.822 83.7018C275.725 79.064 278.204 74.8794 281.84 71.8544C287.241 67.4266 294.872 65.7961 300.699 62.2371C303.503 60.5238 307.098 62.7378 306.608 65.9831C306.6 66.0349 306.592 66.0867 306.584 66.1385C305.716 66.4915 304.87 66.8982 304.052 67.3563C303.584 67.6198 303.126 67.8995 302.677 68.1954C302.114 68.5709 301.678 69.1074 301.426 69.7347C301.173 70.362 301.116 71.0507 301.263 71.7106C301.409 72.3706 301.752 72.971 302.247 73.4331C302.741 73.8953 303.363 74.1977 304.033 74.3007L304.101 74.3112C304.151 74.3182 304.193 74.3253 304.242 74.3324C302.758 77.8689 300.675 81.124 298.085 83.9552C295.557 97.5756 284.7 98.8679 273.087 94.9015H273.079C271.805 100.427 269.959 105.806 267.57 110.951H247.891C247.82 110.733 247.757 110.508 247.693 110.29C249.515 110.404 251.344 110.295 253.139 109.966C251.679 108.178 250.219 106.376 248.758 104.588C248.726 104.554 248.695 104.519 248.667 104.482C247.926 103.567 247.178 102.659 246.438 101.744L246.437 101.743C246.398 98.9376 246.72 96.1391 247.397 93.4162L247.398 93.4158Z" fill="#F2F2F2"/>
<path d="M310.583 43.1529C306.924 29.8388 336.437 18.4216 344.187 29.1435C345.265 27.6192 349.248 26.6933 351.075 27.1609C352.902 27.6285 354.439 28.7975 355.938 29.9291C358 31.5096 360.137 33.1462 361.402 35.4188C362.676 37.682 362.873 40.7682 361.158 42.7321C359.799 44.2939 355.789 45.3039 353.746 45.7154C352.321 46.0053 351.122 46.2391 350.091 46.4074C349.155 45.0612 348.723 43.4289 348.873 41.7969C348.179 42.264 347.597 42.8785 347.17 43.5964C346.742 44.3143 346.479 45.1178 346.399 45.9492C346.371 46.2952 357.916 88.6882 357.916 88.6882C356.529 89.476 355.07 90.1305 353.558 90.6427C350.568 86.0826 348.279 81.1022 346.764 75.8664C346.416 79.3674 346.46 82.8963 346.895 86.3875C347.127 88.3452 347.459 90.2899 347.889 92.2138C334.17 95.1691 313.535 94.1965 304.557 81.6274C304.556 81.5754 304.554 81.5233 304.553 81.4712C304.546 80.9751 304.366 80.4969 304.045 80.1184C303.723 79.7399 303.28 79.4847 302.791 79.3965C302.301 79.3084 301.797 79.3928 301.363 79.6352C300.929 79.8776 300.593 80.263 300.413 80.7254C300.195 81.2799 299.995 81.7599 299.816 82.1417C297.201 72.8083 300.584 62.0067 310.583 43.1529Z" fill="#2F2E41"/>
<path d="M287.237 266.37V266.806C287.22 266.661 287.22 266.515 287.237 266.37V266.37Z" fill="#2F2E41"/>
<path d="M300.672 191.02C301.021 190.926 301.377 190.857 301.735 190.814C301.323 190.881 300.969 190.95 300.672 191.02Z" fill="#2F2E41"/>
<path d="M300.362 191.099C300.456 191.073 300.56 191.047 300.672 191.02C300.568 191.047 300.468 191.067 300.362 191.099Z" fill="#2F2E41"/>
<path d="M399.621 309.998H349.334C348.616 309.427 348.118 308.626 347.922 307.731C347.726 306.837 347.844 305.902 348.257 305.083C349.631 301.939 346.939 299.066 346.939 299.066C346.025 297.998 345.39 296.72 345.089 295.348C344.788 293.976 344.832 292.55 345.215 291.199C346.548 286.555 341.327 273.447 341.327 273.447C341.327 273.447 338.512 290.373 335.063 309.998H287.237C286.436 308.636 286.014 307.086 286.014 305.506C286.014 303.927 286.436 302.376 287.237 301.015C290.024 296.298 287.237 295.394 287.237 295.394C287.237 295.394 284.45 290.116 287.237 286.284C290.024 282.452 287.237 266.806 287.237 266.806C287.342 267.498 288.136 266.24 289.359 263.603C291.22 259.59 294.064 252.375 296.938 243.998C298.992 238.019 301.063 231.441 302.794 225.009H302.798C303.252 223.32 303.682 221.646 304.088 219.987C304.882 216.733 305.563 213.572 306.079 210.604C307.201 204.21 307.571 198.717 306.709 195.145C305.995 192.173 304.432 190.534 301.735 190.814C303.18 190.575 305.298 190.349 307.907 190.135C308.377 190.097 308.865 190.06 309.369 190.018C328.828 188.55 370.579 187.708 370.579 187.708L383.367 210.562L399.562 239.512C399.562 239.512 399.121 278.348 399.621 309.998Z" fill="#2F2E41"/>
<path d="M345.946 88.9285L316.484 82.6913L310.634 94.4427L290.934 105.825C290.934 105.825 303.632 157.641 303.56 164.929C303.376 183.431 273.712 224.907 296.118 221.716C318.525 218.526 323.076 205.16 330.269 207.274C336.756 209.18 344.677 217.658 349.98 211.594C355.283 205.53 357.151 212.533 360.504 212.775C362.098 212.89 361.138 205.118 365.148 213.016C369.157 220.915 390.419 210.282 383.213 203.091C371.211 191.114 368.772 102.822 368.772 102.822L355.412 98.7194L345.946 88.9285Z" fill="#E6E6E6"/>
<path d="M290.377 277.102C291.561 275.693 292.147 273.879 292.011 272.046C291.875 270.212 291.027 268.504 289.648 267.285C289.364 267.041 289.06 266.822 288.74 266.628L293.666 242.501L282.278 235.698L279.11 269.478C278.41 270.867 278.189 272.447 278.483 273.974C278.777 275.5 279.569 276.887 280.736 277.917C281.405 278.496 282.183 278.939 283.024 279.219C283.864 279.499 284.752 279.611 285.636 279.548C286.52 279.486 287.384 279.25 288.176 278.854C288.969 278.459 289.676 277.912 290.257 277.244C290.298 277.197 290.338 277.15 290.377 277.102Z" fill="#A0616A"/>
<path d="M325.736 149.924C325.665 149.148 324.673 148.796 323.3 148.309C321.92 147.885 320.608 147.265 319.405 146.469C316.364 144.276 317.561 141.983 319.216 138.813C319.54 138.197 319.876 137.555 320.191 136.889C321.128 134.914 319.636 126.768 315.75 112.672C314.553 108.333 314.557 105.268 313.73 103.235C312.906 101.201 311.255 100.199 306.756 99.9895C301.317 99.7155 295.992 101.605 291.947 105.243C291.837 105.339 291.724 105.444 291.615 105.545C291.409 105.738 291.207 105.935 291.01 106.136C287.269 109.891 285.129 114.945 285.036 120.24L285.015 121.141L284.086 164.208L281.478 202L277.881 254.06L280.545 254.19L291.174 254.718L292.463 254.781L295.522 241.977L299.202 226.569L300.555 220.909L304.752 203.35L306.709 195.145L307.907 190.135L308.394 188.089L310.772 178.144C310.827 177.935 316.296 156.397 322.602 152.796C324.955 151.454 325.803 150.674 325.736 149.924Z" fill="#E6E6E6"/>
<path d="M396.488 276.846C395.159 275.572 394.381 273.831 394.319 271.994C394.257 270.156 394.916 268.367 396.155 267.007C396.412 266.734 396.69 266.483 396.988 266.257L389.494 242.797L400.084 234.813L406.869 268.058C407.715 269.363 408.104 270.911 407.976 272.461C407.848 274.01 407.21 275.473 406.161 276.622C405.557 277.27 404.832 277.794 404.026 278.162C403.22 278.53 402.35 278.737 401.464 278.769C400.578 278.802 399.695 278.66 398.864 278.352C398.033 278.044 397.271 277.575 396.622 276.973C396.577 276.931 396.532 276.889 396.488 276.846Z" fill="#A0616A"/>
<path d="M401.668 225.94C401.668 225.94 393.409 196.938 395.928 193.798C398.447 190.659 391.007 190.046 394.213 184.199C397.419 178.351 392.994 177.373 392.994 177.373L390.593 163.929L386.3 130.908L386.17 129.926L384.922 120.319C384.573 117.575 383.673 114.929 382.277 112.54C380.88 110.151 379.015 108.067 376.793 106.414C376.679 106.327 376.563 106.244 376.447 106.161C375.919 105.781 375.379 105.429 374.828 105.105C370.707 102.679 365.868 101.762 361.143 102.511C352.24 103.895 355.011 107.208 353.567 116.085C351.221 130.517 350.612 138.774 351.756 140.64C352.142 141.268 352.547 141.869 352.933 142.446C354.921 145.424 356.358 147.572 353.568 150.083C352.456 151.001 351.22 151.756 349.895 152.326C348.584 152.96 347.634 153.414 347.647 154.193C347.662 154.948 348.589 155.629 351.071 156.71C354.078 158.023 357.308 162.989 359.954 168.062C362.053 172.151 363.925 176.352 365.562 180.646L388.301 244.47L392.01 254.879L393.289 254.677L403.796 253.015L406.431 252.599L401.668 225.94Z" fill="#E6E6E6"/>
<path d="M333.516 82.2506C346.791 82.2506 357.553 71.5106 357.553 58.2621C357.553 45.0136 346.791 34.2736 333.516 34.2736C320.241 34.2736 309.479 45.0136 309.479 58.2621C309.479 71.5106 320.241 82.2506 333.516 82.2506Z" fill="#A0616A"/>
<path d="M297.464 45.0234C293.804 31.7092 323.318 20.292 331.068 31.0139C332.146 29.4896 336.128 28.5637 337.956 29.0313C339.783 29.4989 341.32 30.6679 342.819 31.7995C344.881 33.38 347.017 35.0166 348.282 37.2892C349.557 39.5524 349.754 42.6386 348.039 44.6025C346.68 46.1643 342.669 47.1743 340.626 47.5858C339.202 47.8757 338.002 48.1095 336.972 48.2779C336.035 46.9316 335.604 45.2993 335.753 43.6673C335.06 44.1344 334.478 44.7489 334.05 45.4668C333.623 46.1847 333.359 46.9882 333.279 47.8196C333.251 48.1656 344.796 90.5586 344.796 90.5586C343.409 91.3464 341.95 92.0009 340.439 92.5131C337.449 87.9531 335.159 82.9726 333.645 77.7369C333.297 81.2379 333.341 84.7667 333.776 88.2579C334.008 90.2157 334.339 92.1603 334.769 94.0843C321.05 97.0395 300.415 96.0669 291.438 83.4978C291.436 83.4458 291.435 83.3937 291.434 83.3417C291.427 82.8455 291.247 82.3673 290.925 81.9888C290.604 81.6103 290.161 81.3551 289.671 81.267C289.182 81.1788 288.677 81.2632 288.243 81.5056C287.81 81.748 287.474 82.1334 287.293 82.5958C287.076 83.1504 286.875 83.6303 286.696 84.0121C284.082 74.6787 287.465 63.8771 297.464 45.0234Z" fill="#2F2E41"/>
<path d="M178.255 127.914C177.747 127.937 177.244 127.804 176.815 127.533C176.386 127.262 176.05 126.865 175.854 126.397C175.658 125.93 175.611 125.413 175.719 124.917C175.827 124.422 176.085 123.971 176.458 123.627C176.521 123.379 176.566 123.201 176.628 122.953C176.606 122.899 176.583 122.846 176.561 122.792C174.279 117.362 166.546 117.4 164.284 122.837C162.276 127.663 159.72 132.498 159.09 137.601C158.813 139.856 158.93 142.143 159.436 144.358C154.72 134.092 152.271 122.933 152.255 111.639C152.254 108.805 152.412 105.973 152.728 103.157C152.989 100.848 153.351 98.5554 153.814 96.2793C156.342 83.9296 161.769 72.3544 169.65 62.5043C173.464 60.4273 176.549 57.2334 178.488 53.353C179.19 51.9582 179.687 50.4691 179.962 48.9323C179.532 48.9886 178.34 42.4489 178.664 42.0477C178.065 41.1396 176.991 40.6883 176.337 39.8022C173.08 35.3953 168.592 36.1648 166.25 42.1533C161.246 44.6739 161.197 48.854 164.268 52.8743C166.221 55.4321 166.49 58.893 168.204 61.6313C168.027 61.8566 167.844 62.0748 167.668 62.3001C164.444 66.4368 161.635 70.8788 159.279 75.5625C159.946 70.3679 158.962 64.1097 157.285 60.0757C155.376 55.4793 151.797 51.6082 148.646 47.6346C144.861 42.8618 137.099 44.9447 136.432 50.9951C136.425 51.0537 136.419 51.1122 136.413 51.1708C136.881 51.4343 137.339 51.714 137.787 52.0099C138.351 52.3854 138.787 52.922 139.039 53.5492C139.292 54.1765 139.349 54.8652 139.202 55.5251C139.056 56.1851 138.713 56.7855 138.218 57.2476C137.724 57.7098 137.102 58.0122 136.432 58.1152L136.364 58.1257C136.53 59.8093 136.825 61.4777 137.245 63.1167C133.203 78.7192 141.93 84.402 154.393 84.6573C154.668 84.798 154.936 84.9388 155.211 85.0726C152.845 91.7651 151.36 98.7362 150.795 105.811C150.476 109.984 150.494 114.177 150.852 118.348L150.831 118.2C149.928 113.562 147.449 109.378 143.812 106.353C138.411 101.925 130.781 100.294 124.954 96.7353C122.149 95.0221 118.555 97.236 119.044 100.481C119.052 100.533 119.06 100.585 119.068 100.637C119.937 100.99 120.782 101.396 121.6 101.854C122.068 102.118 122.527 102.398 122.975 102.694C123.538 103.069 123.974 103.606 124.227 104.233C124.479 104.86 124.536 105.549 124.389 106.209C124.243 106.869 123.9 107.469 123.406 107.931C122.911 108.394 122.289 108.696 121.619 108.799L121.551 108.809C121.501 108.816 121.459 108.824 121.41 108.831C122.894 112.367 124.977 115.622 127.568 118.453C130.095 132.074 140.952 133.366 152.566 129.4H152.573C153.847 134.926 155.693 140.305 158.082 145.45H177.761C177.832 145.231 177.895 145.006 177.959 144.788C176.137 144.902 174.309 144.793 172.513 144.464C173.974 142.676 175.434 140.874 176.894 139.086C176.926 139.053 176.957 139.017 176.986 138.98C177.726 138.065 178.474 137.157 179.214 136.242L179.215 136.241C179.254 133.436 178.932 130.637 178.255 127.914L178.255 127.914Z" fill="#F2F2F2"/>
<path d="M86.4279 29.144C85.9812 30.1828 72.2091 30.0715 71.5784 30.9965C66.7152 38.1376 84.2461 68.5215 79.3829 75.672L78.7054 76.4778C80.292 75.7481 81.816 74.89 83.2623 73.9122C83.3923 70.9853 83.5222 68.0492 83.6614 65.1223C85.118 66.982 86.2938 69.0447 87.151 71.2446C88.2833 70.4481 89.2122 68.9715 94.0653 66.0671C96.0301 63.9131 98.2952 62.0524 100.791 60.542L86.4279 29.144Z" fill="#2F2E41"/>
<path d="M96.4286 87.6699C94.9088 86.6819 93.1748 86.0698 91.3706 85.8845C89.5663 85.6991 87.7437 85.9459 86.0542 86.6042C84.3646 87.2626 82.8567 88.3135 81.6556 89.6699C80.4545 91.0263 79.5948 92.649 79.1479 94.4034L58.2193 148.825L22.2453 128.443C22.0873 126.1 21.19 123.867 19.6819 122.065C18.1739 120.263 16.1326 118.983 13.8509 118.41C11.5692 117.837 9.1643 118 6.98107 118.875C4.79784 119.751 2.94848 121.294 1.69823 123.283C0.447975 125.272 -0.138939 127.605 0.0216668 129.948C0.182272 132.29 1.08215 134.522 2.59222 136.323C4.1023 138.123 6.145 139.4 8.42735 139.971C10.7097 140.541 13.1144 140.376 15.2967 139.498C22.8725 147.567 55.7164 180.651 69.3135 167.724C80.7426 156.859 97.2361 114.748 101.206 100.206C101.842 97.8811 101.722 95.4144 100.864 93.1614C100.005 90.9085 98.4523 88.9857 96.4286 87.6699V87.6699Z" fill="#FFB6B6"/>
<path d="M57.1302 170.005L63.7347 199.796L112.029 204.155L116.467 178.215L57.1302 170.005Z" fill="#FFB6B6"/>
<path d="M130.9 246.4C130.878 246.827 130.852 247.25 130.821 247.677C130.357 253.849 129.828 260.969 129.255 268.77C128.35 281.151 127.34 295.249 126.321 309.998H25.0238L44.6693 251.069C44.6693 251.069 52.6017 246.71 48.5632 239.388C44.5247 232.066 52.471 237.901 52.5449 227.444C52.6188 216.988 59.7395 205.863 59.7395 205.863L60.9086 190.031L61.5747 190.044L114.29 190.92L115.252 190.938L116.871 204.529C126.702 216.204 131.717 231.172 130.9 246.4V246.4Z" fill="#2F2E41"/>
<path d="M87.2721 73.2323L111.31 71.9965L122.475 89.6031C122.475 89.6031 143.483 93.1082 142.027 117.813C140.571 142.518 116.467 164.196 116.467 164.196L117.497 160.671L115.708 165.774L115.937 168.639L118.378 171.673L118.63 174.811L116.467 179.776C116.748 180.226 116.897 180.746 116.898 181.276C116.898 181.806 116.75 182.326 116.469 182.776C116.188 183.227 115.787 183.59 115.31 183.824C114.833 184.058 114.3 184.154 113.771 184.101L79.0381 180.627C78.2473 178.456 77.6128 175.859 74.4431 180.183L71.1711 179.866L57.5696 178.551L56.7691 175.641C56.3142 173.987 56.2433 172.252 56.5618 170.566C56.8803 168.881 57.5798 167.291 58.6071 165.916V165.916C57.4256 162.224 57.7351 158.217 59.4695 154.75L59.5345 154.62L60.979 153.418C60.979 153.418 45.1766 129.725 63.3172 111.88L70.598 99.5279L78.7446 89.6088L87.2721 73.2323Z" fill="#6C63FF"/>
<path d="M93.2548 62.8391C105.844 62.8391 116.05 52.6541 116.05 40.0903C116.05 27.5265 105.844 17.3415 93.2548 17.3415C80.6655 17.3415 70.4599 27.5265 70.4599 40.0903C70.4599 52.6541 80.6655 62.8391 93.2548 62.8391Z" fill="#FFB6B6"/>
<path d="M110.568 72.8616C108.711 71.3137 107.419 69.1973 106.892 66.8412C106.471 69.7019 106.581 72.6156 107.217 75.4365C105.983 76.3627 104.786 77.2426 103.653 78.0392C102.796 75.8392 101.62 73.7765 100.164 71.9169C100.024 74.8437 99.8945 77.7799 99.7646 80.7067C98.3183 81.6846 96.7943 82.5426 95.2077 83.2723L95.8852 82.4665C100.748 75.3161 88.1634 62.1545 93.0266 55.0133C94.391 53.0127 88.2284 37.2021 83.5322 36.4889C79.3558 35.8591 79.5322 37.0632 75.4857 37.9431C75.0654 36.1941 74.4131 34.5089 73.5459 32.9322C73.7768 34.6891 73.7235 36.4716 73.3882 38.2117C71.9497 38.2672 70.8179 37.3525 69.286 37.1187C59.5132 35.6276 60.5062 25.0779 63.2255 21.7342C65.9541 18.3999 75.0123 17.3995 79.1888 16.3158C79.5693 15.9454 80.4324 16.1769 80.8129 15.8249C88.8168 8.51472 99.5215 7.30409 109.155 10.5441C119.428 13.9994 125.833 20.6869 129.12 30.9964L130.063 39.2467C130.909 41.8995 129.845 54.2424 129.12 56.9306C126.303 67.3803 120.305 62.1638 110.568 72.8616Z" fill="#2F2E41"/>
<path d="M143.805 180.64L142.907 110.889C142.86 107.934 141.651 105.116 139.541 103.042C137.43 100.969 134.588 99.8072 131.626 99.8073H131.626C130.094 99.8073 128.578 100.119 127.171 100.722C125.764 101.326 124.494 102.21 123.44 103.319C122.386 104.428 121.569 105.74 121.039 107.175C120.51 108.61 120.279 110.137 120.36 111.664L123.518 184.089L123.578 228.179C121.717 228.966 120.144 230.307 119.072 232.018C118.001 233.729 117.483 235.727 117.59 237.742C117.697 239.757 118.422 241.69 119.668 243.279C120.914 244.868 122.619 246.036 124.553 246.624C126.487 247.211 128.556 247.191 130.477 246.564C132.399 245.938 134.081 244.737 135.295 243.123C136.509 241.51 137.195 239.563 137.262 237.546C137.328 235.53 136.771 233.542 135.665 231.852L143.805 180.64Z" fill="#FFB6B6"/>
<path d="M261.451 270.881C261.451 270.881 260.063 295.793 259.426 310H211.644C210.66 297.07 210.329 287.571 210.329 287.571L207.715 310H159.417L156.423 268.461L170.893 232.666C170.893 232.666 249.308 227.238 256.582 234.123C263.851 241.004 261.451 270.881 261.451 270.881Z" fill="#2F2E41"/>
<path d="M219.198 61.3222C233.613 61.3222 245.298 49.6605 245.298 35.2751C245.298 20.8897 233.613 9.22798 219.198 9.22798C204.784 9.22798 193.098 20.8897 193.098 35.2751C193.098 49.6605 204.784 61.3222 219.198 61.3222Z" fill="#FFB6B6"/>
<path d="M249.62 26.8114C246.939 28.0313 245.202 36.8666 243.095 34.8126C240.988 32.7586 241.129 30.0856 238.288 29.3275C235.994 28.7128 233.525 29.4154 231.433 30.5235C231.059 30.719 230.697 30.9316 230.344 31.143C230.111 30.9876 229.879 30.8414 229.63 30.7065C227.758 29.7069 225.574 29.4616 223.526 30.0213C225.144 30.5621 226.551 31.5968 227.547 32.979C226.847 33.4474 226.137 33.917 225.412 34.3331C219.35 37.8241 210.725 30.233 204.344 27.3812C208.341 34.8659 206.373 37.9656 202.903 45.7064L202.783 46.1471C202.98 44.2071 196.964 42.7613 197.313 45.4923C197.561 47.4313 199.242 51.7412 200.184 53.4532C193.476 45.7122 188.892 36.2392 189.859 26.4671C190.069 24.4143 190.006 22.2483 191.067 20.4666C192.129 18.694 194.343 17.4502 196.302 18.1261C196.136 15.0096 196.82 11.9066 198.28 9.14674C199.74 6.38692 201.922 4.07352 204.594 2.45248C207.266 0.831435 210.328 -0.0366475 213.456 -0.0594891C216.583 -0.0823307 219.657 0.740928 222.353 2.32276C224.858 3.78959 226.949 5.86417 229.245 7.65365C231.541 9.44312 234.187 11.0029 237.098 11.1507C238.945 11.2396 240.955 10.7896 242.542 11.7442C244.379 12.8518 244.694 15.1708 244.97 17.4023C243.331 17.5636 241.777 18.209 240.507 19.256C242.203 19.0833 243.91 19.4488 245.386 20.3005C245.414 20.3132 245.441 20.3283 245.466 20.3458C246.438 24.0337 246.338 24.8513 249.62 26.8114Z" fill="#2F2E41"/>
<path d="M159.533 245.267C181.759 219.304 174.252 186.28 165.43 152.944L167.109 103.698C167.191 101.282 167.855 98.9214 169.044 96.8154C170.232 94.7095 171.912 92.92 173.939 91.598L196.629 76.8046L205.461 64.0616L229.804 66.4911L243.304 80.7384L258.246 92.1227C261.998 94.9812 264.853 98.8505 266.474 103.275C268.095 107.699 268.414 112.493 267.395 117.093L253.096 181.629C253.096 181.629 259.077 215.085 255.427 218.78C251.778 222.475 242.375 218.782 249.832 222.93C258.78 227.907 266.917 226.989 262.389 231.508C257.86 236.028 263.591 242.311 263.591 242.311L159.533 245.267Z" fill="#6C63FF"/>
<path d="M169.036 283.001L172.741 256.656L157.956 252.444L155.031 280.437C153.808 281.556 152.922 282.994 152.472 284.589C152.022 286.184 152.028 287.873 152.487 289.465C152.946 291.057 153.841 292.489 155.072 293.601C156.302 294.714 157.819 295.461 159.452 295.76C161.085 296.059 162.769 295.898 164.315 295.294C165.861 294.69 167.207 293.668 168.203 292.343C169.198 291.017 169.804 289.44 169.951 287.79C170.098 286.14 169.781 284.482 169.036 283.001V283.001Z" fill="#FFB6B6"/>
<path d="M197.184 81.5537C197.184 81.5537 155.099 95.2232 154.096 105.225C153.092 115.227 153.425 121.35 148.983 161.372L149.217 269.183C149.217 269.183 177.432 275.212 174.539 268.766C171.645 262.32 172.655 259.288 172.655 259.288C172.655 259.288 178.704 256.905 177.19 249.337C175.676 241.769 183.27 204.262 183.27 204.262L188.063 136.996L197.184 81.5537Z" fill="#6C63FF"/>
<path d="M249.075 281.606L247.103 255.075L262.132 251.837L263.217 279.961C264.365 281.158 265.155 282.651 265.499 284.271C265.843 285.892 265.728 287.576 265.165 289.135C264.603 290.694 263.615 292.065 262.315 293.095C261.014 294.124 259.452 294.771 257.803 294.963C256.154 295.155 254.484 294.884 252.981 294.181C251.478 293.477 250.201 292.37 249.294 290.982C248.388 289.594 247.887 287.981 247.848 286.325C247.809 284.669 248.234 283.035 249.075 281.606H249.075Z" fill="#FFB6B6"/>
<path d="M234.181 78.7531C234.181 78.7531 275.281 95.1387 275.627 105.185C275.973 115.23 275.24 121.318 277.051 161.545L269.756 269.111C269.756 269.111 241.206 273.286 244.516 267.043C247.825 260.799 247.017 257.707 247.017 257.707C247.017 257.707 241.136 254.935 243.143 247.482C245.15 240.028 240.029 202.107 240.029 202.107L239.652 134.672L234.181 78.7531Z" fill="#6C63FF"/>
</g>
<defs>
<clipPath id="clip0_4_79">
<rect width="408" height="310" fill="white"/>
</clipPath>
</defs>
</svg>
